<svg width="400" height="200" viewBox="0 0 400 200" preserveAspectRatio="xMidYMid slice" xmlns="http://www.w3.org/2000/svg">
  <!-- Top Left Blob (indigo-300 / opacity 0.2) -->
  <g transform="translate(40, 30)">
    <path fill="#a5b4fc" fill-opacity="0.2" d="M44.7,-76.4C58.8,-69.2,71.8,-59.1,81.3,-46.3C90.8,-33.5,96.8,-18,97,-2.4C97.1,13.2,91.3,28.9,81.5,41.9C71.7,54.9,57.9,65.2,42.8,71.6C27.6,78,11.1,80.5,-4.4,75.4C-19.9,70.3,-34.4,57.6,-48.5,45.8C-62.6,34,-76.3,23.1,-82.7,8.8C-89.1,-5.5,-88.2,-23.3,-79.7,-38.2C-71.2,-53.1,-55.1,-65.1,-40,-72.1C-24.9,-79.1,-12.4,-81.1,1.5,-83.8C15.4,-86.5,30.6,-83.6,44.7,-76.4Z" transform="scale(1.6)" />
  </g>
  
  <!-- Bottom Right Blob (indigo-400 / opacity 0.3) -->
  <g transform="translate(350, 180)">
    <path fill="#818cf8" fill-opacity="0.3" d="M47.2,-74.6C59.9,-66.2,68.2,-51.2,73.1,-35.8C78.1,-20.3,79.7,-4.4,76.5,10.6C73.3,25.6,65.3,39.6,53.8,49.8C42.4,59.9,27.5,66.1,11.8,69.5C-3.9,72.9,-20.5,73.4,-34.5,67.3C-48.4,61.2,-59.8,48.5,-68.2,33.9C-76.6,19.3,-82.1,2.8,-79.7,-12.6C-77.3,-28,-67,-42.2,-53.8,-50.8C-40.6,-59.3,-24.5,-62.1,-8.5,-64.1C7.6,-66.1,23.2,-67.2,34.5,-74.6Z" transform="scale(2.2)" />
  </g>
</svg>
